<svg xmlns="http://www.w3.org/2000/svg" xmlns:xlink="http://www.w3.org/1999/xlink" width="2000" zoomAndPan="magnify" viewBox="0 0 1500 487.499991" height="650" preserveAspectRatio="xMidYMid meet" version="1.0"><defs><g/><clipPath id="0723c2cb12"><path d="M 0.769531 0 L 1499.230469 0 L 1499.230469 448 L 0.769531 448 Z M 0.769531 0 " clip-rule="nonzero"/></clipPath><clipPath id="8dd0a82c5a"><path d="M 0.769531 0 L 1499.230469 0 L 1499.230469 447.859375 L 0.769531 447.859375 Z M 0.769531 0 " clip-rule="nonzero"/></clipPath><clipPath id="1d2e544207"><rect x="0" width="1500" y="0" height="448"/></clipPath><clipPath id="6bffe97d85"><path d="M 527 317 L 662.242188 317 L 662.242188 425 L 527 425 Z M 527 317 " clip-rule="nonzero"/></clipPath><clipPath id="3e740aa39f"><rect x="0" width="387" y="0" height="153"/></clipPath><clipPath id="258a795b5d"><rect x="0" width="450" y="0" height="153"/></clipPath><clipPath id="68baaae39d"><rect x="0" width="1500" y="0" height="448"/></clipPath></defs><g clip-path="url(#0723c2cb12)"><g transform="matrix(1, 0, 0, 1, 0.000000000000000111, 0)"><g clip-path="url(#68baaae39d)"><g clip-path="url(#8dd0a82c5a)"><g transform="matrix(1, 0, 0, 1, 0.000000000000000111, 0)"><g clip-path="url(#1d2e544207)"><g fill="#aa1313" fill-opacity="1"><g transform="translate(-5.3288, 297.044093)"><g><path d="M 24.96875 -162.296875 L 24.96875 -187.265625 L 131.09375 -187.265625 L 131.09375 -162.296875 Z M 234.09375 -49.9375 C 234.09375 -16.644531 214.863281 0 176.40625 0 C 137.875 0 118.609375 -16.644531 118.609375 -49.9375 L 118.609375 -87.390625 C 118.609375 -104.035156 106.125 -112.359375 81.15625 -112.359375 C 56.1875 -112.359375 43.703125 -104.035156 43.703125 -87.390625 L 43.703125 -49.9375 C 43.703125 -41.363281 45.445312 -34.875 48.9375 -30.46875 C 50.851562 -27.96875 52.8125 -26.71875 54.8125 -26.71875 C 56.394531 -26.71875 57.972656 -27.550781 59.546875 -29.21875 C 60.960938 -30.550781 61.671875 -32.421875 61.671875 -34.828125 C 61.671875 -38.742188 59.882812 -43.988281 56.3125 -50.5625 L 48.9375 -62.796875 L 68.171875 -76.15625 L 76.53125 -65.671875 C 83.769531 -58.265625 87.390625 -47.191406 87.390625 -32.453125 C 87.390625 -24.960938 83.644531 -17.554688 76.15625 -10.234375 C 69.164062 -3.410156 62.050781 0 54.8125 0 C 46.65625 0 38.601562 -4.285156 30.65625 -12.859375 C 22.707031 -21.429688 18.734375 -33.789062 18.734375 -49.9375 L 18.734375 -87.390625 C 18.734375 -120.679688 39.539062 -137.328125 81.15625 -137.328125 C 122.769531 -137.328125 143.578125 -120.679688 143.578125 -87.390625 L 143.578125 -49.9375 C 143.578125 -33.289062 154.519531 -24.96875 176.40625 -24.96875 C 198.21875 -24.96875 209.125 -33.289062 209.125 -49.9375 L 209.125 -137.328125 C 209.125 -170.617188 226.804688 -187.265625 262.171875 -187.265625 C 297.546875 -187.265625 315.234375 -170.617188 315.234375 -137.328125 L 315.234375 0 L 290.265625 0 L 290.265625 -137.328125 C 290.265625 -153.972656 280.898438 -162.296875 262.171875 -162.296875 C 243.453125 -162.296875 234.09375 -153.972656 234.09375 -137.328125 Z M 234.09375 -49.9375 "/></g></g></g><g fill="#aa1313" fill-opacity="1"><g transform="translate(328.628111, 297.044093)"><g><path d="M 43.703125 -49.9375 C 43.703125 -33.289062 56.1875 -24.96875 81.15625 -24.96875 C 106.125 -24.96875 118.609375 -33.289062 118.609375 -49.9375 L 118.609375 -187.265625 L 143.578125 -187.265625 L 143.578125 -49.9375 C 143.578125 -33.289062 154.519531 -24.96875 176.40625 -24.96875 C 198.21875 -24.96875 209.125 -33.289062 209.125 -49.9375 L 209.125 -187.265625 L 234.09375 -187.265625 L 234.09375 -49.9375 C 234.09375 -16.644531 214.863281 0 176.40625 0 C 155.4375 0 140.164062 -4.910156 130.59375 -14.734375 C 120.269531 -4.910156 103.789062 0 81.15625 0 C 39.539062 0 18.734375 -16.644531 18.734375 -49.9375 L 18.734375 -137.328125 C 18.734375 -153.472656 22.707031 -165.832031 30.65625 -174.40625 C 38.601562 -182.976562 46.65625 -187.265625 54.8125 -187.265625 C 62.050781 -187.265625 69.164062 -183.851562 76.15625 -177.03125 C 83.644531 -169.707031 87.390625 -162.300781 87.390625 -154.8125 C 87.390625 -140.082031 83.769531 -129.007812 76.53125 -121.59375 L 68.171875 -111.109375 L 48.9375 -124.46875 L 56.3125 -136.703125 C 59.882812 -143.285156 61.671875 -148.53125 61.671875 -152.4375 C 61.671875 -154.851562 60.960938 -156.769531 59.546875 -158.1875 C 57.972656 -159.757812 56.394531 -160.546875 54.8125 -160.546875 C 52.8125 -160.546875 50.851562 -159.34375 48.9375 -156.9375 C 45.445312 -152.4375 43.703125 -145.898438 43.703125 -137.328125 Z M 43.703125 -49.9375 "/></g></g></g><g fill="#aa1313" fill-opacity="1"><g transform="translate(581.436622, 297.044093)"><g><path d="M -112.359375 -237.203125 C -112.359375 -253.023438 -99.875 -260.9375 -74.90625 -260.9375 L -68.671875 -260.9375 L -68.671875 -243.453125 L -75.28125 -243.453125 C -83.351562 -243.453125 -87.390625 -241.367188 -87.390625 -237.203125 C -87.390625 -233.046875 -77.40625 -230.96875 -57.4375 -230.96875 C -35.789062 -230.96875 -24.96875 -241.367188 -24.96875 -262.171875 L 0 -262.171875 C 0 -228.878906 -19.144531 -212.234375 -57.4375 -212.234375 C -94.050781 -212.234375 -112.359375 -220.554688 -112.359375 -237.203125 Z M -112.359375 -237.203125 "/></g></g></g><g fill="#aa1313" fill-opacity="1"><g transform="translate(581.436622, 297.044093)"><g><path d="M 206 -137.328125 C 206 -170.617188 224.722656 -187.265625 262.171875 -187.265625 C 299.628906 -187.265625 318.359375 -170.617188 318.359375 -137.328125 L 318.359375 0 L 293.390625 0 L 293.390625 -137.328125 C 293.390625 -153.972656 282.984375 -162.296875 262.171875 -162.296875 C 241.367188 -162.296875 230.96875 -153.972656 230.96875 -137.328125 L 230.96875 0 L 206 0 L 174.78125 -32.203125 L 143.578125 0 L 118.609375 0 L 118.609375 -137.328125 C 118.609375 -153.972656 106.125 -162.296875 81.15625 -162.296875 C 56.1875 -162.296875 43.703125 -153.972656 43.703125 -137.328125 C 43.703125 -131.503906 55.769531 -128.59375 79.90625 -128.59375 L 79.90625 -103.625 C 55.769531 -103.625 43.703125 -85.726562 43.703125 -49.9375 C 43.703125 -41.363281 45.445312 -34.875 48.9375 -30.46875 C 50.851562 -27.96875 52.8125 -26.71875 54.8125 -26.71875 C 56.394531 -26.71875 57.972656 -27.550781 59.546875 -29.21875 C 60.960938 -30.550781 61.671875 -32.421875 61.671875 -34.828125 C 61.671875 -38.742188 59.882812 -43.988281 56.3125 -50.5625 L 48.9375 -62.796875 L 68.171875 -76.15625 L 76.53125 -65.671875 C 83.769531 -58.265625 87.390625 -47.191406 87.390625 -32.453125 C 87.390625 -24.960938 83.644531 -17.554688 76.15625 -10.234375 C 69.164062 -3.410156 62.050781 0 54.8125 0 C 46.65625 0 38.601562 -4.285156 30.65625 -12.859375 C 22.707031 -21.429688 18.734375 -33.789062 18.734375 -49.9375 C 18.734375 -77.65625 24.429688 -98.046875 35.828125 -111.109375 C 24.429688 -116.691406 18.734375 -125.429688 18.734375 -137.328125 C 18.734375 -170.617188 39.539062 -187.265625 81.15625 -187.265625 C 122.769531 -187.265625 143.578125 -170.617188 143.578125 -137.328125 L 143.578125 -35.828125 L 174.78125 -68.046875 L 206 -35.828125 Z M 206 -137.328125 "/></g></g></g><g fill="#aa1313" fill-opacity="1"><g transform="translate(918.514572, 297.044093)"><g><path d="M -193.515625 62.421875 L -173.53125 62.421875 L -173.53125 18.734375 L -126.71875 18.734375 C -119.8125 18.734375 -114.648438 20.3125 -111.234375 23.46875 C -107.828125 26.550781 -106.125 30.171875 -106.125 34.328125 L -106.125 81.15625 L -131.09375 81.15625 L -131.09375 37.453125 L -151.0625 37.453125 L -151.0625 81.15625 L -197.890625 81.15625 C -204.710938 81.15625 -209.828125 79.570312 -213.234375 76.40625 C -216.734375 73.320312 -218.484375 69.703125 -218.484375 65.546875 L -218.484375 18.734375 L -193.515625 18.734375 Z M -193.515625 62.421875 "/></g></g></g><g fill="#aa1313" fill-opacity="1"><g transform="translate(918.514572, 297.044093)"><g><path d="M 118.609375 0 L 118.609375 -87.390625 C 118.609375 -104.035156 106.125 -112.359375 81.15625 -112.359375 C 56.1875 -112.359375 43.703125 -104.035156 43.703125 -87.390625 L 43.703125 0 L 18.734375 0 L 18.734375 -87.390625 C 18.734375 -120.679688 39.539062 -137.328125 81.15625 -137.328125 C 122.769531 -137.328125 143.578125 -120.679688 143.578125 -87.390625 L 143.578125 0 Z M 168.546875 -187.265625 C 205.992188 -187.265625 224.71875 -170.617188 224.71875 -137.328125 L 224.71875 0 L 199.75 0 L 199.75 -137.328125 C 199.75 -153.972656 189.347656 -162.296875 168.546875 -162.296875 L 18.734375 -162.296875 L 18.734375 -187.265625 Z M 168.546875 -187.265625 "/></g></g></g><g fill="#aa1313" fill-opacity="1"><g transform="translate(1161.959757, 297.044093)"><g><path d="M 18.734375 -137.328125 C 18.734375 -170.617188 39.539062 -187.265625 81.15625 -187.265625 L 81.15625 -162.296875 C 56.1875 -162.296875 43.703125 -153.972656 43.703125 -137.328125 L 43.703125 -49.9375 C 43.703125 -41.363281 45.445312 -34.875 48.9375 -30.46875 C 50.851562 -27.96875 52.8125 -26.71875 54.8125 -26.71875 C 56.394531 -26.71875 57.972656 -27.550781 59.546875 -29.21875 C 60.960938 -30.550781 61.671875 -32.421875 61.671875 -34.828125 C 61.671875 -38.742188 59.882812 -43.988281 56.3125 -50.5625 L 48.9375 -62.796875 L 68.171875 -76.15625 L 76.53125 -65.671875 C 83.769531 -58.265625 87.390625 -47.191406 87.390625 -32.453125 C 87.390625 -24.960938 83.644531 -17.554688 76.15625 -10.234375 C 69.164062 -3.410156 62.050781 0 54.8125 0 C 46.65625 0 38.601562 -4.285156 30.65625 -12.859375 C 22.707031 -21.429688 18.734375 -33.789062 18.734375 -49.9375 Z M 18.734375 -137.328125 "/></g></g></g><g fill="#aa1313" fill-opacity="1"><g transform="translate(1255.592521, 297.044093)"><g><path d="M 43.703125 -49.9375 C 43.703125 -33.289062 56.1875 -24.96875 81.15625 -24.96875 C 106.125 -24.96875 118.609375 -33.289062 118.609375 -49.9375 L 118.609375 -137.328125 C 118.609375 -170.617188 137.332031 -187.265625 174.78125 -187.265625 C 212.238281 -187.265625 230.96875 -170.617188 230.96875 -137.328125 L 230.96875 0 L 206 0 L 206 -137.328125 C 206 -153.972656 195.59375 -162.296875 174.78125 -162.296875 C 153.976562 -162.296875 143.578125 -153.972656 143.578125 -137.328125 L 143.578125 -49.9375 C 143.578125 -16.644531 122.769531 0 81.15625 0 C 39.539062 0 18.734375 -16.644531 18.734375 -49.9375 L 18.734375 -94.890625 C 18.734375 -104.703125 22.1875 -113.894531 29.09375 -122.46875 C 18.019531 -127.550781 12.484375 -137.707031 12.484375 -152.9375 C 12.484375 -175.820312 23.300781 -187.265625 44.9375 -187.265625 C 50.769531 -187.265625 56.597656 -186.4375 62.421875 -184.78125 L 62.421875 -159.8125 C 58.265625 -161.46875 52.4375 -162.296875 44.9375 -162.296875 C 39.945312 -162.296875 37.453125 -159.175781 37.453125 -152.9375 C 37.453125 -146.695312 41.613281 -142.742188 49.9375 -141.078125 L 62.421875 -138.578125 L 62.421875 -123.59375 C 49.941406 -116.019531 43.703125 -106.453125 43.703125 -94.890625 Z M 43.703125 -49.9375 "/></g></g></g><g fill="#aa1313" fill-opacity="1"><g transform="translate(1505.279888, 297.044093)"><g><path d="M -88.765625 87.390625 C -109.078125 87.390625 -122.25 84.679688 -128.28125 79.265625 C -134.3125 73.859375 -137.328125 66.207031 -137.328125 56.3125 L -137.328125 43.703125 C -127.835938 41.535156 -115.457031 37.847656 -100.1875 32.640625 C -84.914062 27.441406 -68.164062 20.722656 -49.9375 12.484375 L -24.96875 12.484375 L -24.96875 25.09375 C -24.96875 45.65625 -31.25 61.175781 -43.8125 71.65625 C -56.382812 82.144531 -71.367188 87.390625 -88.765625 87.390625 Z M -112.359375 57.0625 C -112.359375 61.21875 -109.132812 63.753906 -102.6875 64.671875 C -96.238281 65.585938 -90.722656 66.046875 -86.140625 66.046875 C -76.898438 66.046875 -68.554688 62.878906 -61.109375 56.546875 C -53.660156 50.222656 -49.9375 42.859375 -49.9375 34.453125 C -62.59375 39.617188 -72.351562 43.550781 -79.21875 46.25 C -86.082031 48.957031 -97.128906 52.5625 -112.359375 57.0625 Z M -112.359375 57.0625 "/></g></g></g></g></g></g><g clip-path="url(#6bffe97d85)"><path fill="#aa1313" d="M 618.480469 350.144531 C 620.296875 349.0625 622.292969 348.285156 624.328125 347.710938 C 626.03125 347.230469 629.1875 346.007812 630.117188 348.027344 C 630.816406 349.550781 631.535156 354.691406 631.484375 356.417969 C 631.410156 358.96875 630.351562 361.351562 629.3125 363.609375 C 633.9375 362.421875 638.199219 363.335938 641.917969 366.246094 C 642.761719 366.902344 645.535156 369.316406 645.933594 370.125 C 646.175781 370.621094 646.253906 370.957031 646.109375 371.503906 C 645.765625 372.792969 642.929688 375.925781 641.851562 376.839844 L 639.21875 378.617188 C 642.191406 379.832031 645.175781 381.683594 647.714844 383.664062 C 659.457031 392.835938 661.9375 404.746094 661.96875 419.085938 C 661.96875 420.273438 662.152344 421.558594 661.769531 422.757812 C 661.347656 424.058594 660.292969 424.59375 658.960938 424.414062 C 657.949219 424.277344 655.355469 422.835938 654 422.410156 C 647.125 420.257812 639.84375 420.875 632.84375 419.273438 C 620.3125 416.402344 609.667969 407.550781 606.800781 394.707031 C 603.492188 393.992188 600.523438 392.585938 597.746094 390.691406 C 598.160156 393.214844 598.050781 395.832031 597.390625 398.308594 C 596.394531 402.046875 594.023438 404.519531 591.074219 406.847656 C 590.402344 407.375 587.972656 409.242188 587.335938 409.453125 C 584.972656 410.226562 583.832031 407.085938 582.5 405.703125 C 575.554688 414.53125 565.71875 419.078125 554.773438 420.839844 C 547.667969 421.984375 539.953125 421.878906 533.058594 423.886719 C 531.421875 424.363281 529.140625 425.902344 527.796875 424.195312 C 526.601562 422.675781 527.582031 419.984375 528.0625 418.273438 C 531.929688 404.550781 540.347656 390.136719 552.628906 382.484375 C 554.28125 381.453125 556.214844 380.714844 557.769531 379.734375 C 557.90625 379.644531 558.113281 379.589844 558.125 379.394531 C 553.40625 378.339844 548.804688 375.9375 545.054688 372.890625 C 538.929688 367.910156 535.621094 360.890625 530.042969 355.402344 C 529.355469 354.726562 527.855469 353.796875 527.675781 352.816406 C 527.535156 352.03125 527.726562 351.15625 528.359375 350.632812 C 529.082031 350.035156 533.320312 348.835938 534.523438 348.441406 C 545.148438 344.945312 553.296875 343.011719 564.15625 347.441406 C 565.859375 348.136719 567.453125 349.058594 569.113281 349.835938 C 568.378906 348.371094 566.84375 344.613281 569.140625 343.902344 C 570.214844 343.570312 573.105469 344.65625 574.375 344.730469 C 574.238281 343.652344 573.902344 342.617188 573.777344 341.535156 C 573.617188 340.171875 573.53125 337.097656 573.921875 335.839844 C 574.101562 335.261719 574.628906 334.78125 575.234375 334.679688 C 576.875 334.402344 580.730469 335.960938 582.21875 336.808594 L 584.589844 338.382812 C 585.417969 335.636719 587.71875 333.1875 589.847656 331.339844 C 590.535156 330.746094 591.460938 329.851562 592.40625 329.859375 C 593.65625 329.867188 595.675781 331.96875 596.582031 332.808594 C 601.28125 324.8125 609.273438 320.054688 618.199219 318.0625 C 619.671875 317.734375 621.886719 316.949219 623.128906 318.03125 C 624.792969 319.476562 623.160156 321.664062 622.734375 323.371094 C 621.660156 327.679688 622.515625 331.839844 622.355469 336.148438 C 622.207031 340.222656 621.308594 344.242188 619.59375 347.929688 C 619.445312 348.242188 618.378906 350.03125 618.484375 350.144531 Z M 618.789062 322.289062 C 618.574219 322.265625 618.382812 322.292969 618.179688 322.371094 C 617.195312 322.753906 613.3125 327.320312 612.449219 328.40625 C 609.894531 331.609375 607.746094 335.109375 605.636719 338.617188 C 605.605469 338.847656 605.621094 338.890625 605.859375 338.835938 C 606.636719 338.660156 607.84375 337.964844 608.730469 337.683594 C 609.472656 337.449219 610.289062 337.234375 611.050781 337.066406 C 614.292969 336.34375 616.195312 335.828125 616.003906 340.007812 C 615.867188 342.941406 614.875 346.035156 613.710938 348.699219 L 611.980469 351.691406 C 615.8125 347.804688 617.882812 342.351562 618.175781 336.917969 C 618.441406 332.058594 617.273438 327.015625 618.789062 322.289062 Z M 616.625 322.753906 C 609.375 324.605469 602.722656 329.339844 599.449219 336.152344 C 600.238281 338.027344 600.882812 339.859375 600.683594 341.941406 C 601.210938 341.414062 602.148438 341.082031 602.613281 340.542969 C 603.347656 339.683594 604.25 337.628906 604.953125 336.539062 C 608.261719 331.402344 611.96875 326.738281 616.625 322.753906 Z M 594.492188 347.511719 C 594.738281 346.628906 595.234375 345.894531 595.894531 345.277344 C 596.050781 345.136719 596.34375 345.097656 596.5 344.953125 C 597.222656 344.289062 597.382812 341.003906 597.261719 340.023438 C 596.953125 337.515625 594.28125 335.238281 592.425781 333.75 C 590.242188 335.671875 587.820312 337.660156 587.53125 340.785156 C 587.46875 341.484375 587.457031 342.722656 587.523438 343.417969 C 587.628906 344.554688 588.730469 345.992188 587.6875 346.816406 C 588.175781 347.101562 588.882812 348.46875 589.234375 348.683594 C 589.449219 348.8125 589.773438 348.542969 590.007812 348.59375 C 589.636719 347.21875 589.183594 343.496094 590.820312 342.832031 C 592.691406 342.070312 593.632812 344.269531 594.074219 345.6875 Z M 585.363281 345.5 C 584.082031 341.6875 580.863281 339.335938 577.007812 338.382812 C 576.984375 340.414062 577.132812 342.5 577.859375 344.414062 C 577.957031 344.671875 578.644531 346.125 578.75 346.234375 C 578.933594 346.417969 580.34375 346.964844 580.769531 347.230469 C 582.453125 348.285156 584.121094 350.117188 585.296875 351.699219 L 586.289062 351.148438 C 585.179688 350.148438 583.289062 347.890625 583.933594 346.3125 C 584.140625 345.804688 584.789062 345.351562 585.363281 345.5 Z M 612.597656 340.242188 C 607.917969 341.054688 604.203125 343.304688 600.679688 346.351562 C 599.875 347.046875 599.394531 348.019531 598.238281 348.164062 L 597.898438 349.679688 C 598.035156 349.847656 600.453125 347.460938 601.777344 348.664062 C 603.28125 350.023438 600.820312 352.519531 599.753906 353.390625 C 601.539062 352.941406 604.324219 351.019531 605.171875 353.703125 L 605.402344 353.703125 C 609.710938 350.585938 612.019531 345.445312 612.601562 340.242188 Z M 592.945312 350.066406 C 592.90625 349.25 592.945312 348.410156 592.945312 347.589844 C 592.945312 347.285156 592.578125 345.980469 592.445312 345.613281 C 592.324219 345.277344 591.609375 343.632812 591.324219 344.570312 C 590.984375 345.671875 591.265625 348.496094 591.796875 349.515625 C 591.914062 349.746094 592.628906 350.378906 592.871094 350.453125 C 593.339844 350.597656 592.945312 350.09375 592.945312 350.066406 Z M 596.8125 346.742188 C 596.589844 346.476562 595.972656 347.632812 595.90625 347.765625 C 595.3125 348.929688 595.085938 350.3125 594.648438 351.535156 L 595.570312 351.6875 C 596.109375 350.074219 596.933594 348.5 596.8125 346.742188 Z M 585.363281 347.050781 C 585.03125 347.46875 587.195312 350.3125 587.582031 350.277344 C 587.769531 350.257812 588 350.039062 588.152344 349.914062 C 588.398438 349.71875 588.253906 349.757812 588.152344 349.605469 C 587.507812 348.644531 586.390625 347.585938 585.363281 347.050781 Z M 583.195312 352.460938 C 581.503906 350.433594 579.261719 348.871094 576.671875 348.234375 C 574.953125 347.8125 573.121094 347.796875 571.4375 347.203125 C 572.03125 349.492188 573.734375 352.007812 575.53125 353.554688 C 577.054688 354.863281 578.578125 354.894531 580.359375 355.6875 C 581.796875 356.328125 582.976562 357.414062 584.589844 357.570312 C 583.445312 356.359375 580.9375 353.703125 583.195312 352.460938 Z M 568.339844 353.550781 C 561.226562 349.382812 553.828125 347.550781 545.585938 349.136719 C 541.507812 349.917969 537.6875 351.605469 533.675781 352.621094 C 533.738281 352.921875 533.984375 352.894531 534.214844 352.929688 C 535.742188 353.179688 537.285156 353.316406 538.808594 353.597656 C 548.96875 355.476562 558.824219 359.171875 567.953125 363.917969 C 567.898438 362.96875 567.394531 361.980469 567.144531 361.011719 C 566.765625 359.535156 566.144531 356.949219 566.324219 355.480469 C 566.421875 354.691406 566.839844 354.203125 567.5625 353.929688 C 567.917969 353.796875 568.457031 354.046875 568.339844 353.550781 Z M 600.683594 349.835938 C 599.390625 350.445312 598.296875 351.394531 597.28125 352.386719 C 597.402344 352.523438 597.644531 352.730469 597.820312 352.722656 C 598.226562 352.699219 600.976562 350.152344 600.683594 349.835938 Z M 625.441406 363.605469 C 626.421875 361.667969 627.679688 359.535156 627.902344 357.320312 C 628.054688 355.804688 627.78125 352.445312 627.292969 351.003906 C 627.242188 350.847656 627.253906 350.6875 627.058594 350.621094 C 623.9375 351.515625 619.84375 352.214844 618.25 355.410156 C 616.792969 358.339844 617.511719 361.980469 617.710938 365.070312 C 617.785156 366.1875 617.636719 367.296875 617.554688 368.40625 L 620.410156 364.847656 C 619.46875 362.171875 622.378906 361.578125 624.261719 362.699219 C 624.535156 362.863281 625.207031 363.769531 625.441406 363.605469 Z M 597.125 354.941406 C 595.933594 353.738281 594.050781 353.636719 592.53125 352.800781 C 591.597656 352.285156 590.929688 351.558594 590.082031 350.945312 C 588.515625 352.519531 586.621094 353.433594 584.589844 354.246094 C 586.199219 356.773438 588.886719 358.296875 591.347656 359.878906 L 591.554688 359.828125 C 592.984375 357.832031 594.894531 355.984375 597.125 354.941406 Z M 569.53125 366.902344 C 569.203125 366.554688 566.945312 365.414062 566.332031 365.074219 C 556.300781 359.496094 545.234375 355.683594 533.984375 353.394531 C 539.289062 359.191406 542.851562 366.570312 549.410156 371.160156 C 553.710938 374.171875 558.851562 375.96875 564.085938 376.464844 C 567.320312 374.785156 570.863281 373.539062 574.53125 373.355469 C 574.601562 373.058594 574.421875 373.058594 574.269531 372.921875 C 573.363281 372.097656 572.511719 371.300781 571.75 370.335938 C 571.003906 369.394531 570.15625 367.578125 569.53125 366.902344 Z M 614.144531 357.570312 C 614.140625 356.609375 614.546875 355.707031 614.765625 354.785156 C 614.09375 355.257812 613.5 356.019531 612.753906 356.335938 Z M 602.691406 356.023438 C 597.632812 357.765625 594.089844 360.496094 592.558594 365.773438 C 591.910156 368.019531 591.863281 370.425781 591.292969 372.554688 C 591.140625 373.113281 590.875 373.519531 590.238281 373.519531 C 589.175781 373.519531 589.308594 372.566406 588.988281 371.976562 C 587.660156 369.539062 586.957031 366.777344 585.425781 364.394531 C 581.910156 358.914062 576.195312 357.101562 569.886719 357.109375 C 570.648438 363.707031 574.210938 369.425781 579.804688 372.957031 C 580.589844 373.457031 583.320312 374.683594 583.667969 375.285156 C 584.226562 376.246094 583.25 377.03125 582.269531 376.761719 C 582.222656 376.792969 582.347656 376.960938 582.421875 376.996094 C 582.53125 377.050781 584.203125 377.210938 584.511719 377.222656 C 585.105469 377.253906 585.703125 377.210938 586.292969 377.222656 L 583.515625 373.421875 C 582.878906 372.957031 581.964844 373.425781 581.597656 372.25 C 580.921875 370.097656 583.863281 367.707031 585.679688 369.09375 C 586.734375 369.902344 586.027344 370.875 586.277344 371.273438 C 586.925781 371.730469 589.785156 374.84375 590.242188 374.914062 C 590.488281 374.949219 591.695312 372.8125 592.058594 372.539062 C 592.257812 372.003906 591.539062 371.453125 592.253906 370.421875 C 594.078125 367.792969 600.046875 373.433594 595.097656 374.542969 L 593.871094 377.84375 C 594.613281 377.933594 595.738281 379.058594 596.339844 379.167969 C 596.582031 379.210938 596.800781 378.960938 597.054688 378.933594 C 600.207031 378.597656 599.882812 384.097656 597.082031 383.847656 C 596.042969 383.753906 595.964844 382.914062 595.574219 382.71875 C 595.007812 382.4375 593.601562 382.550781 592.945312 382.175781 C 592.929688 382.933594 592.058594 384.117188 592.015625 384.746094 C 591.976562 385.371094 592.691406 385.820312 592.152344 386.878906 C 590.976562 389.183594 586.007812 387.136719 587.707031 384.753906 C 587.917969 384.457031 588.371094 384.285156 588.433594 384.089844 C 588.519531 383.820312 588.714844 381.347656 588.613281 381.25 C 586.722656 381.511719 584.464844 380.84375 582.644531 381.085938 C 581.90625 381.183594 581.863281 381.898438 580.75 381.613281 C 579.007812 381.164062 578.621094 377.730469 579.945312 376.609375 C 573.96875 375.996094 566.390625 377.503906 562.640625 382.589844 C 561.554688 384.0625 560.59375 385.867188 559.984375 387.589844 C 567.160156 389.769531 574.8125 388.347656 581.289062 384.835938 C 582.222656 384.328125 586.003906 381.707031 586.652344 381.753906 C 587.550781 381.824219 587.644531 382.691406 587.457031 383.421875 C 586.90625 385.539062 584.535156 388.601562 583.695312 391.113281 C 581.792969 396.808594 582.925781 401.230469 586.828125 405.671875 C 589.75 403.695312 592.886719 401.335938 593.949219 397.808594 C 594.761719 395.109375 594.640625 392.035156 594.105469 389.292969 C 593.851562 387.992188 592.667969 384.929688 593.011719 383.871094 C 593.144531 383.46875 593.550781 383.25 593.949219 383.253906 C 594.765625 383.253906 596.914062 385.582031 597.667969 386.195312 C 602.277344 389.960938 606.859375 392.527344 613.0625 390.84375 C 611.40625 385.980469 608.65625 380.488281 603.3125 379.003906 C 600.726562 378.289062 598.09375 378.679688 595.6875 378.121094 C 595.082031 377.980469 594.679688 377.359375 594.867188 376.753906 C 595.066406 376.101562 598.136719 374.1875 598.898438 373.507812 C 604.300781 368.710938 604.984375 362.691406 602.691406 356.023438 Z M 620.722656 375.367188 C 622.296875 375.375 623.871094 375.363281 625.445312 375.367188 L 625.445312 374.90625 C 624.625 374.695312 619.800781 375.160156 621.199219 373.367188 L 627.144531 370.804688 L 626.835938 369.953125 L 620.066406 372.398438 C 618.945312 372.253906 619.003906 371.667969 619.441406 370.832031 C 620.21875 369.351562 621.480469 367.921875 622.34375 366.46875 L 621.503906 365.925781 C 620.511719 366.867188 617.324219 372.136719 616.425781 372.46875 C 615.125 372.953125 614.746094 369.71875 613.996094 369.179688 L 615.398438 374.675781 C 615.144531 375.816406 614.21875 375.5 613.761719 374.597656 C 613.027344 373.148438 613.082031 371.140625 612.566406 369.910156 C 612.445312 369.613281 611.980469 369.523438 611.761719 369.167969 C 610.839844 367.660156 612.722656 364.246094 614.765625 365.15625 C 614.179688 361.421875 611.382812 358.582031 607.726562 357.722656 C 607.738281 359.636719 607.511719 361.484375 607.339844 363.375 C 607.234375 364.554688 606.914062 366.082031 606.871094 367.097656 C 606.800781 368.65625 608.617188 370.304688 609.828125 371.101562 C 610.613281 371.613281 612.660156 372.292969 612.597656 373.269531 C 612.511719 374.636719 610.625 374.199219 609.753906 374.300781 C 608.902344 374.402344 607.695312 374.882812 607.210938 375.625 C 606.316406 376.992188 607.535156 377.03125 608.46875 377.71875 C 609.09375 378.175781 609.65625 378.699219 610.28125 379.15625 L 613.285156 382.800781 C 614.9375 382.125 616.257812 380.742188 616.171875 378.847656 C 616.144531 378.328125 615.824219 377.839844 615.835938 377.453125 C 615.847656 377.109375 616.160156 376.894531 616.132812 376.714844 C 616.101562 376.527344 615.816406 376.386719 615.832031 375.914062 C 615.863281 375.164062 616.453125 375.105469 617.046875 375.335938 C 617.839844 375.640625 619.972656 377.613281 620.414062 377.691406 C 620.613281 377.730469 620.734375 377.664062 620.644531 377.460938 C 620.480469 377.070312 619.441406 376.625 619.589844 375.945312 C 619.683594 375.570312 620.023438 375.226562 620.414062 375.230469 C 620.554688 375.230469 620.675781 375.367188 620.726562 375.367188 Z M 590.46875 361.441406 C 589.585938 361.507812 588.546875 360.253906 587.878906 360.085938 C 587.410156 359.964844 586.804688 360.109375 586.292969 359.894531 C 587.335938 361.382812 588.5625 362.816406 589.234375 364.535156 Z M 624.515625 365.464844 C 624.410156 364.230469 622.890625 363.269531 621.730469 363.765625 C 622.210938 364.792969 623.375 365.515625 624.515625 365.464844 Z M 614.148438 366.550781 C 613.378906 366.480469 613.046875 367.488281 613.066406 368.09375 C 613.675781 367.757812 613.941406 367.183594 614.148438 366.550781 Z M 628.695312 376.449219 C 633.882812 377.136719 639.480469 376.09375 642.140625 371.136719 C 640.058594 368.863281 637.394531 366.769531 634.195312 366.542969 C 632.511719 366.421875 630.960938 366.816406 629.3125 367.015625 C 630.496094 368.074219 631.488281 370.175781 630.46875 371.648438 C 629.699219 372.757812 628.835938 372.039062 628.03125 372.148438 C 627.328125 372.246094 626.148438 373.257812 625.292969 373.203125 C 625.738281 373.894531 626.367188 373.285156 626.765625 373.210938 C 628.921875 372.8125 630.121094 374.789062 628.695312 376.449219 Z M 617.085938 369.023438 C 615.902344 369.363281 615.578125 368.519531 615.539062 367.476562 C 615.503906 367.433594 615.339844 367.558594 615.304688 367.628906 C 615.078125 368.085938 616.242188 369.636719 616.160156 370.261719 Z M 626.527344 367.785156 C 625.421875 368.265625 624.332031 368.214844 623.28125 367.632812 L 621.886719 370.105469 C 622.617188 369.585938 625.988281 368.835938 626.386719 368.339844 C 626.527344 368.164062 626.554688 368.003906 626.527344 367.785156 Z M 627.921875 368.25 C 627.988281 369.320312 628.171875 370.226562 629.082031 370.878906 C 630.171875 370.328125 628.386719 367.785156 627.921875 368.25 Z M 584.898438 370.265625 C 583.882812 369.882812 583.296875 370.777344 582.890625 371.578125 C 583.730469 372.238281 584.636719 371 584.898438 370.265625 Z M 595.421875 372.890625 C 595.757812 372.160156 593.65625 370.960938 593.410156 371.191406 C 593.578125 372.164062 594.421875 372.933594 595.421875 372.890625 Z M 606.253906 372.582031 L 605.25 371.195312 C 604.292969 372.664062 603.121094 373.945312 601.921875 375.214844 L 603.785156 375.613281 C 604.230469 374.386719 604.945312 373.050781 606.253906 372.582031 Z M 590.003906 383.878906 L 590.53125 384.019531 L 592.015625 380.707031 C 592.613281 380.347656 594.503906 380.996094 595.265625 381.03125 C 595.492188 381.039062 595.550781 381.136719 595.730469 380.859375 C 595.851562 380.289062 592.488281 379.128906 592.234375 378.3125 C 592.015625 377.617188 593.480469 374.828125 593.558594 373.914062 L 593.179688 373.667969 C 591.902344 374.855469 591.378906 377.941406 589.230469 376.222656 C 587.828125 375.101562 586.539062 373.582031 585.132812 372.433594 C 584.964844 372.421875 584.921875 372.589844 585.054688 372.8125 C 585.921875 374.289062 587.71875 375.972656 588.433594 377.484375 C 588.785156 378.226562 588.539062 378.75 587.746094 378.929688 L 582.886719 378.617188 L 582.886719 379.546875 C 584.664062 379.753906 586.640625 379.546875 588.378906 379.707031 C 590.691406 379.914062 590.25 381.179688 590.160156 383.1875 C 590.152344 383.371094 589.964844 383.828125 590.003906 383.878906 Z M 626.835938 375.832031 C 627.074219 376.078125 628.335938 375.054688 627.769531 374.667969 C 626.949219 374.328125 626.777344 375.207031 626.835938 375.832031 Z M 624.050781 376.917969 L 622.195312 376.917969 C 622.109375 377.289062 622.257812 377.167969 622.394531 377.261719 C 622.707031 377.472656 623.027344 377.542969 623.277344 377.921875 C 624.464844 379.707031 621.910156 381.214844 620.285156 380.140625 C 619.582031 379.671875 619.503906 378.519531 618.480469 378.15625 C 619.628906 382.003906 619.25 386.039062 621.339844 389.609375 C 622.972656 392.394531 626.078125 393.820312 629.003906 394.867188 C 629.507812 392.078125 629.71875 389.558594 628.960938 386.789062 C 628.0625 383.5 625.9375 381.019531 623.863281 378.421875 C 623.59375 377.886719 623.753906 377.386719 624.050781 376.917969 Z M 581.335938 380.011719 C 581.585938 379.273438 581.695312 378.035156 580.722656 377.847656 C 580.464844 378.542969 580.425781 379.847656 581.335938 380.011719 Z M 657.476562 418.234375 C 657.292969 412.964844 657.144531 407.609375 655.625 402.527344 C 652.53125 392.191406 644.761719 385.394531 634.921875 381.597656 C 634.140625 381.296875 629.796875 379.65625 629.3125 380.015625 C 631.21875 382.632812 632.4375 385.535156 632.859375 388.769531 C 639.992188 394.675781 646.441406 401.4375 651.722656 409.058594 L 657.476562 418.238281 Z M 597.511719 380.324219 C 597 380.550781 596.996094 382.339844 597.355469 382.332031 C 598.007812 381.824219 598.128906 380.914062 597.511719 380.324219 Z M 567.722656 392.085938 C 564.515625 391.929688 561.164062 391.609375 558.09375 390.644531 C 557.667969 390.511719 557.101562 390.390625 556.738281 390.140625 C 554.894531 388.878906 557.542969 385.039062 557.351562 384.808594 C 544.421875 391.515625 537.175781 405.050781 532.746094 418.390625 C 541.140625 412.453125 549.664062 406.640625 557.800781 400.347656 C 561.199219 397.714844 564.59375 395.027344 567.71875 392.085938 Z M 616.3125 384.808594 L 614.777344 385.675781 C 615.304688 387.371094 617.421875 391 616.847656 392.691406 C 616.417969 393.957031 612.570312 394.339844 611.359375 394.636719 C 613.949219 404.335938 621.871094 411.445312 631.324219 414.289062 C 638.640625 416.488281 646.292969 415.746094 653.640625 417.660156 C 654.734375 417.945312 655.796875 418.324219 656.859375 418.699219 C 656.96875 418.589844 656.269531 417.519531 656.148438 417.320312 C 650.125 407.503906 641.898438 398.417969 632.875 391.308594 C 632.714844 393.003906 632.605469 396.421875 631.765625 397.863281 C 630.652344 399.765625 627.054688 397.925781 625.492188 397.214844 C 620.054688 394.738281 616.894531 390.902344 616.3125 384.808594 Z M 588.921875 385.585938 C 588.84375 386.355469 590.621094 386.636719 590.777344 386.117188 C 590.753906 385.132812 589.589844 385.390625 588.921875 385.585938 Z M 532.4375 419.472656 C 541.742188 417.023438 551.621094 417.75 560.875 415.027344 C 568.613281 412.753906 575.640625 408.089844 580.1875 401.378906 C 578.671875 397.171875 579.34375 392.710938 581.027344 388.679688 C 577.839844 390.433594 574.257812 391.09375 570.761719 391.953125 C 559.039062 402.066406 546.035156 410.5625 533.003906 418.882812 Z M 532.4375 419.472656 " fill-opacity="1" fill-rule="nonzero"/></g><g transform="matrix(1, 0, 0, 1, 114, 275)"><g clip-path="url(#3e740aa39f)"><g fill="#aa1313" fill-opacity="1"><g transform="translate(1.435733, 112.458211)"><g><path d="M 34.921875 1.359375 C 29.085938 1.359375 24.03125 0.367188 19.75 -1.609375 C 15.476562 -3.597656 12.175781 -6.378906 9.84375 -9.953125 C 7.519531 -13.535156 6.320312 -17.691406 6.25 -22.421875 L 15.4375 -22.421875 C 15.570312 -17.765625 17.425781 -14.097656 21 -11.421875 C 24.582031 -8.742188 29.222656 -7.40625 34.921875 -7.40625 C 40.066406 -7.40625 44.148438 -8.410156 47.171875 -10.421875 C 50.203125 -12.441406 51.71875 -15.257812 51.71875 -18.875 C 51.71875 -22.28125 50.253906 -25.003906 47.328125 -27.046875 C 44.410156 -29.097656 39.648438 -30.890625 33.046875 -32.421875 C 24.085938 -34.578125 17.519531 -37.335938 13.34375 -40.703125 C 9.175781 -44.078125 7.09375 -48.582031 7.09375 -54.21875 C 7.09375 -60.40625 9.4375 -65.304688 14.125 -68.921875 C 18.820312 -72.535156 25.164062 -74.34375 33.15625 -74.34375 C 41.351562 -74.34375 47.832031 -72.289062 52.59375 -68.1875 C 57.363281 -64.082031 59.78125 -58.488281 59.84375 -51.40625 L 50.78125 -51.40625 C 50.707031 -55.78125 49.085938 -59.234375 45.921875 -61.765625 C 42.765625 -64.304688 38.507812 -65.578125 33.15625 -65.578125 C 27.945312 -65.578125 23.863281 -64.550781 20.90625 -62.5 C 17.945312 -60.457031 16.46875 -57.695312 16.46875 -54.21875 C 16.46875 -51.226562 17.84375 -48.707031 20.59375 -46.65625 C 23.34375 -44.601562 28.257812 -42.707031 35.34375 -40.96875 C 44.65625 -38.675781 51.289062 -35.8125 55.25 -32.375 C 59.21875 -28.9375 61.203125 -24.539062 61.203125 -19.1875 C 61.203125 -12.863281 58.820312 -7.859375 54.0625 -4.171875 C 49.300781 -0.484375 42.921875 1.359375 34.921875 1.359375 Z M 34.921875 1.359375 "/></g></g></g><g fill="#aa1313" fill-opacity="1"><g transform="translate(71.296417, 112.458211)"><g><path d="M 1.765625 0 L 31.796875 -72.984375 L 40.34375 -72.984375 L 70.375 0 L 60.6875 0 L 53.796875 -16.578125 L 18.25 -16.578125 L 11.578125 0 Z M 21.796875 -25.125 L 50.359375 -25.125 L 36.078125 -60.15625 Z M 21.796875 -25.125 "/></g></g></g><g fill="#aa1313" fill-opacity="1"><g transform="translate(140.635579, 112.458211)"><g><path d="M 29.1875 0 L 29.1875 -26.28125 L 1.765625 -72.984375 L 12.40625 -72.984375 L 24.296875 -52.546875 L 33.78125 -36.078125 L 55.265625 -72.984375 L 65.578125 -72.984375 L 38.15625 -26.28125 L 38.15625 0 Z M 29.1875 0 "/></g></g></g><g fill="#aa1313" fill-opacity="1"><g transform="translate(207.889443, 112.458211)"><g><path d="M 43.796875 1.359375 C 36.421875 1.359375 29.882812 -0.253906 24.1875 -3.484375 C 18.488281 -6.722656 14.039062 -11.191406 10.84375 -16.890625 C 7.644531 -22.585938 6.046875 -29.125 6.046875 -36.5 C 6.046875 -43.9375 7.644531 -50.484375 10.84375 -56.140625 C 14.039062 -61.804688 18.488281 -66.253906 24.1875 -69.484375 C 29.882812 -72.722656 36.421875 -74.34375 43.796875 -74.34375 C 51.234375 -74.34375 57.78125 -72.722656 63.4375 -69.484375 C 69.101562 -66.253906 73.550781 -61.804688 76.78125 -56.140625 C 80.019531 -50.484375 81.640625 -43.9375 81.640625 -36.5 C 81.640625 -29.125 80.019531 -22.585938 76.78125 -16.890625 C 73.550781 -11.191406 69.101562 -6.722656 63.4375 -3.484375 C 57.78125 -0.253906 51.234375 1.359375 43.796875 1.359375 Z M 15.4375 -36.5 C 15.4375 -30.863281 16.632812 -25.890625 19.03125 -21.578125 C 21.425781 -17.273438 24.757812 -13.90625 29.03125 -11.46875 C 33.3125 -9.03125 38.234375 -7.8125 43.796875 -7.8125 C 49.421875 -7.8125 54.351562 -9.03125 58.59375 -11.46875 C 62.832031 -13.90625 66.148438 -17.273438 68.546875 -21.578125 C 70.953125 -25.890625 72.15625 -30.863281 72.15625 -36.5 C 72.15625 -42.195312 70.953125 -47.179688 68.546875 -51.453125 C 66.148438 -55.734375 62.832031 -59.085938 58.59375 -61.515625 C 54.351562 -63.953125 49.421875 -65.171875 43.796875 -65.171875 C 38.234375 -65.171875 33.3125 -63.953125 29.03125 -61.515625 C 24.757812 -59.085938 21.425781 -55.734375 19.03125 -51.453125 C 16.632812 -47.179688 15.4375 -42.195312 15.4375 -36.5 Z M 15.4375 -36.5 "/></g></g></g><g fill="#aa1313" fill-opacity="1"><g transform="translate(300.68942, 112.458211)"><g><path d="M 10.640625 0 L 10.640625 -72.984375 L 19.296875 -72.984375 L 59.640625 -15.84375 L 59.640625 -72.984375 L 68.609375 -72.984375 L 68.609375 0 L 60.0625 0 L 19.703125 -57.140625 L 19.703125 0 Z M 10.640625 0 "/></g></g></g></g></g><g transform="matrix(1, 0, 0, 1, 868, 275)"><g clip-path="url(#258a795b5d)"><g fill="#aa1313" fill-opacity="1"><g transform="translate(1.931817, 112.458211)"><g><path d="M 42.953125 1.359375 C 37.597656 1.359375 32.660156 0.421875 28.140625 -1.453125 C 23.628906 -3.335938 19.722656 -5.960938 16.421875 -9.328125 C 13.117188 -12.703125 10.5625 -16.695312 8.75 -21.3125 C 6.945312 -25.9375 6.046875 -31 6.046875 -36.5 C 6.046875 -41.988281 6.945312 -47.039062 8.75 -51.65625 C 10.5625 -56.28125 13.117188 -60.28125 16.421875 -63.65625 C 19.722656 -67.03125 23.628906 -69.65625 28.140625 -71.53125 C 32.660156 -73.40625 37.597656 -74.34375 42.953125 -74.34375 C 48.722656 -74.34375 54.023438 -73.28125 58.859375 -71.15625 C 63.691406 -69.039062 67.828125 -66.019531 71.265625 -62.09375 C 74.703125 -58.164062 77.222656 -53.523438 78.828125 -48.171875 L 69.03125 -48.171875 C 67.144531 -53.453125 63.890625 -57.601562 59.265625 -60.625 C 54.648438 -63.65625 49.316406 -65.171875 43.265625 -65.171875 C 37.847656 -65.171875 33.050781 -63.953125 28.875 -61.515625 C 24.707031 -59.085938 21.425781 -55.71875 19.03125 -51.40625 C 16.632812 -47.09375 15.4375 -42.125 15.4375 -36.5 C 15.4375 -30.863281 16.632812 -25.890625 19.03125 -21.578125 C 21.425781 -17.273438 24.707031 -13.90625 28.875 -11.46875 C 33.050781 -9.03125 37.847656 -7.8125 43.265625 -7.8125 C 49.453125 -7.8125 54.941406 -9.410156 59.734375 -12.609375 C 64.535156 -15.804688 67.875 -20.15625 69.75 -25.65625 L 79.453125 -25.65625 C 77.992188 -20.226562 75.507812 -15.5 72 -11.46875 C 68.488281 -7.4375 64.242188 -4.289062 59.265625 -2.03125 C 54.296875 0.226562 48.859375 1.359375 42.953125 1.359375 Z M 42.953125 1.359375 "/></g></g></g><g fill="#aa1313" fill-opacity="1"><g transform="translate(92.229336, 112.458211)"><g><path d="M 43.796875 1.359375 C 36.421875 1.359375 29.882812 -0.253906 24.1875 -3.484375 C 18.488281 -6.722656 14.039062 -11.191406 10.84375 -16.890625 C 7.644531 -22.585938 6.046875 -29.125 6.046875 -36.5 C 6.046875 -43.9375 7.644531 -50.484375 10.84375 -56.140625 C 14.039062 -61.804688 18.488281 -66.253906 24.1875 -69.484375 C 29.882812 -72.722656 36.421875 -74.34375 43.796875 -74.34375 C 51.234375 -74.34375 57.78125 -72.722656 63.4375 -69.484375 C 69.101562 -66.253906 73.550781 -61.804688 76.78125 -56.140625 C 80.019531 -50.484375 81.640625 -43.9375 81.640625 -36.5 C 81.640625 -29.125 80.019531 -22.585938 76.78125 -16.890625 C 73.550781 -11.191406 69.101562 -6.722656 63.4375 -3.484375 C 57.78125 -0.253906 51.234375 1.359375 43.796875 1.359375 Z M 15.4375 -36.5 C 15.4375 -30.863281 16.632812 -25.890625 19.03125 -21.578125 C 21.425781 -17.273438 24.757812 -13.90625 29.03125 -11.46875 C 33.3125 -9.03125 38.234375 -7.8125 43.796875 -7.8125 C 49.421875 -7.8125 54.351562 -9.03125 58.59375 -11.46875 C 62.832031 -13.90625 66.148438 -17.273438 68.546875 -21.578125 C 70.953125 -25.890625 72.15625 -30.863281 72.15625 -36.5 C 72.15625 -42.195312 70.953125 -47.179688 68.546875 -51.453125 C 66.148438 -55.734375 62.832031 -59.085938 58.59375 -61.515625 C 54.351562 -63.953125 49.421875 -65.171875 43.796875 -65.171875 C 38.234375 -65.171875 33.3125 -63.953125 29.03125 -61.515625 C 24.757812 -59.085938 21.425781 -55.734375 19.03125 -51.453125 C 16.632812 -47.179688 15.4375 -42.195312 15.4375 -36.5 Z M 15.4375 -36.5 "/></g></g></g><g fill="#aa1313" fill-opacity="1"><g transform="translate(185.029313, 112.458211)"><g><path d="M 10.640625 0 L 10.640625 -72.984375 L 52.453125 -72.984375 L 52.453125 -64.4375 L 19.8125 -64.4375 L 19.8125 -39.203125 L 49.734375 -39.203125 L 49.734375 -30.765625 L 19.8125 -30.765625 L 19.8125 0 Z M 10.640625 0 "/></g></g></g><g fill="#aa1313" fill-opacity="1"><g transform="translate(248.425411, 112.458211)"><g><path d="M 10.640625 0 L 10.640625 -72.984375 L 52.453125 -72.984375 L 52.453125 -64.4375 L 19.8125 -64.4375 L 19.8125 -39.203125 L 49.734375 -39.203125 L 49.734375 -30.765625 L 19.8125 -30.765625 L 19.8125 0 Z M 10.640625 0 "/></g></g></g><g fill="#aa1313" fill-opacity="1"><g transform="translate(311.821509, 112.458211)"><g><path d="M 10.640625 0 L 10.640625 -72.984375 L 54.953125 -72.984375 L 54.953125 -64.4375 L 19.8125 -64.4375 L 19.8125 -41.390625 L 52.34375 -41.390625 L 52.34375 -32.953125 L 19.8125 -32.953125 L 19.8125 -8.546875 L 56.09375 -8.546875 L 56.09375 0 Z M 10.640625 0 "/></g></g></g><g fill="#aa1313" fill-opacity="1"><g transform="translate(379.90971, 112.458211)"><g><path d="M 10.640625 0 L 10.640625 -72.984375 L 54.953125 -72.984375 L 54.953125 -64.4375 L 19.8125 -64.4375 L 19.8125 -41.390625 L 52.34375 -41.390625 L 52.34375 -32.953125 L 19.8125 -32.953125 L 19.8125 -8.546875 L 56.09375 -8.546875 L 56.09375 0 Z M 10.640625 0 "/></g></g></g></g></g></g></g></g></svg>